HIERARCHY
ROOT Hips
{
	OFFSET 0.000000 0.000000 0.000000
	CHANNELS 6 Xposition Yposition Zposition Zrotation Yrotation Xrotation 
	JOINT LowerBack
	{
		OFFSET 0.000000 0.000000 0.000000
		CHANNELS 3 Zrotation Yrotation Xrotation
		JOINT Spine
		{
			OFFSET 0.028270 2.035590 -0.193380
			CHANNELS 3 Zrotation Yrotation Xrotation
			JOINT Spine1
			{
				OFFSET 0.056720 2.048850 -0.042750
				CHANNELS 3 Zrotation Yrotation Xrotation
				JOINT Neck
				{
					OFFSET 0.000000 0.000000 0.000000
					CHANNELS 3 Zrotation Yrotation Xrotation
					JOINT Neck1
					{
						OFFSET -0.054170 1.746240 0.172020
						CHANNELS 3 Zrotation Yrotation Xrotation
						JOINT Head
						{
							OFFSET 0.104070 1.761360 -0.123970
							CHANNELS 3 Zrotation Yrotation Xrotation
							End Site
							{
								OFFSET 0.000000 0.000000 0.000000
							}
						}
					}
				}
				JOINT LeftShoulder
				{
					OFFSET 0.000000 0.000000 0.000000
					CHANNELS 3 Zrotation Yrotation Xrotation
					JOINT LeftArm
					{
						OFFSET 3.362410 1.200890 -0.311210
						CHANNELS 3 Zrotation Yrotation Xrotation
						JOINT LeftForeArm
						{
							OFFSET 4.983000 -0.000000 -0.000000
							CHANNELS 3 Zrotation Yrotation Xrotation
							JOINT LeftHand
							{
								OFFSET 3.483560 -0.000000 -0.000000
								CHANNELS 3 Zrotation Yrotation Xrotation
								JOINT LeftFingerBase
								{
									OFFSET 0.000000 0.000000 0.000000
									CHANNELS 3 Zrotation Yrotation Xrotation
									JOINT LeftHandIndex1
									{
										OFFSET 0.715260 -0.000000 -0.000000
										CHANNELS 3 Zrotation Yrotation Xrotation
										End Site
										{
											OFFSET 0.000000 0.000000 0.000000
										}
									}
								}
								JOINT LThumb
								{
									OFFSET 0.000000 0.000000 0.000000
									CHANNELS 3 Zrotation Yrotation Xrotation
									End Site
									{
										OFFSET 0.000000 0.000000 0.000000
									}
								}
							}
						}
					}
				}
				JOINT RightShoulder
				{
					OFFSET 0.000000 0.000000 0.000000
					CHANNELS 3 Zrotation Yrotation Xrotation
					JOINT RightArm
					{
						OFFSET -3.136600 1.374050 -0.404650
						CHANNELS 3 Zrotation Yrotation Xrotation
						JOINT RightForeArm
						{
							OFFSET -5.241900 -0.000000 -0.000000
							CHANNELS 3 Zrotation Yrotation Xrotation
							JOINT RightHand
							{
								OFFSET -3.444170 -0.000000 -0.000000
								CHANNELS 3 Zrotation Yrotation Xrotation
								JOINT RightFingerBase
								{
									OFFSET 0.000000 0.000000 0.000000
									CHANNELS 3 Zrotation Yrotation Xrotation
									JOINT RightHandIndex1
									{
										OFFSET -0.622530 -0.000000 -0.000000
										CHANNELS 3 Zrotation Yrotation Xrotation
										End Site
										{
											OFFSET 0.000000 0.000000 0.000000
										}
									}
								}
								JOINT RThumb
								{
									OFFSET 0.000000 0.000000 0.000000
									CHANNELS 3 Zrotation Yrotation Xrotation
									End Site
									{
										OFFSET 0.000000 0.000000 0.000000
									}
								}
							}
						}
					}
				}
			}
		}
	}
}
}
MOTION
Frames: 15
Frame Time: 0.008333
-9.149844 17.837198 -1.045076 -26.008297 84.361312 -10.685100 2.606913 4.094340 -6.999136 -1.064778 3.500396 -4.512677 -8.207679 3.642091 -0.569881 9.123083 -5.954860 -8.858995 -3.107266 -0.237094 -0.311443 0.000000 0.000000 0.000000 6.696427 24.518546 -1.132246 -55.767128 28.704794 14.316874 -179.971915 -66.165107 -179.984096 45.215553 -34.447818 -15.214735 -0.775503 0.753792 0.000000 0.000000 0.000000 0.000000 0.000000 0.000000 0.000000 5.784763 4.198790 -3.014957 88.435015 18.397909 43.229956 -179.969846 71.392319 179.925592 -18.369062 43.339786 -7.807315 0.391964 -1.607294 -0.000000 0.000000 0.000000 0.000000 0.000000 0.000000 0.000000 
-8.921730 17.859184 -1.064803 -30.475376 85.125034 -15.526105 2.657719 4.036283 -6.849034 -1.053841 3.451478 -4.479626 -8.187659 3.596126 -0.526686 9.100261 -6.047256 -8.863783 -3.098154 -0.236368 -0.310963 0.000000 0.000000 0.000000 6.805270 24.590637 -1.143578 -55.961775 29.162474 13.576561 -179.991051 -65.657152 -179.988773 45.090655 -34.279788 -15.097302 -0.776973 0.760186 0.000000 0.000000 0.000000 0.000000 0.000000 0.000000 0.000000 5.775703 4.114282 -3.038254 88.757812 18.306457 43.608350 -179.979576 71.719001 179.928311 -17.985642 42.879508 -7.554543 0.388256 -1.592894 -0.000000 0.000000 0.000000 0.000000 0.000000 0.000000 0.000000 
-8.696047 17.870067 -1.084341 -36.277768 85.910517 -21.715283 2.666604 3.945221 -6.671218 -1.051537 3.375741 -4.445922 -8.167880 3.523538 -0.506030 9.080496 -6.135306 -8.855244 -3.098399 -0.236521 -0.307121 0.000000 0.000000 0.000000 6.856964 24.567408 -1.151666 -56.181809 29.624700 12.797387 179.988087 -65.142246 -179.993358 44.998825 -34.048863 -14.963350 -0.779633 0.765358 0.000000 0.000000 0.000000 0.000000 0.000000 0.000000 0.000000 5.814790 4.030132 -3.048267 89.032674 18.164416 43.914671 -179.988939 72.075320 179.930745 -17.625390 42.435274 -7.318186 0.384218 -1.577850 -0.000000 0.000000 0.000000 0.000000 0.000000 0.000000 0.000000 
-8.472826 17.869789 -1.103460 -44.060087 86.685487 -29.895005 2.622796 3.829437 -6.463588 -1.061477 3.282326 -4.410144 -8.148613 3.433820 -0.505434 9.063259 -6.218729 -8.837243 -3.107011 -0.237408 -0.301125 0.000000 0.000000 0.000000 6.845945 24.471612 -1.157580 -56.414629 30.050767 12.001558 179.966328 -64.629129 -179.997736 44.943810 -33.768898 -14.820775 -0.783583 0.769507 0.000000 0.000000 0.000000 0.000000 0.000000 0.000000 0.000000 5.895606 3.949693 -3.047219 89.263085 17.973909 44.142060 -179.997831 72.454311 179.932889 -17.282813 42.012742 -7.096642 0.379739 -1.562569 -0.000000 0.000000 0.000000 0.000000 0.000000 0.000000 0.000000 
-8.252076 17.858282 -1.122071 -54.810333 87.396259 -41.052022 2.524115 3.702726 -6.223312 -1.085507 3.184614 -4.370954 -8.130095 3.340402 -0.523141 9.047936 -6.299847 -8.814070 -3.122754 -0.238860 -0.294250 0.000000 0.000000 0.000000 6.768009 24.324714 -1.163106 -56.649093 30.408350 11.213012 179.944076 -64.121791 179.998166 44.924942 -33.458461 -14.677675 -0.788821 0.773005 0.000000 0.000000 0.000000 0.000000 0.000000 0.000000 0.000000 6.010965 3.875541 -3.036632 89.452907 17.740355 44.288579 179.993176 72.850926 179.934796 -16.953916 41.616256 -6.888509 0.374838 -1.547393 -0.000000 0.000000 0.000000 0.000000 0.000000 0.000000 0.000000 
-8.033640 17.835555 -1.140176 -69.580709 87.962478 -56.235884 2.384994 3.585815 -5.949227 -1.120833 3.100411 -4.327340 -8.113030 3.260551 -0.556616 9.035137 -6.382460 -8.790686 -3.144151 -0.240678 -0.287925 0.000000 0.000000 0.000000 6.622014 24.152084 -1.170479 -56.877579 30.666443 10.459867 179.921732 -63.628107 179.994419 44.940165 -33.137731 -14.542049 -0.795233 0.776180 0.000000 0.000000 0.000000 0.000000 0.000000 0.000000 0.000000 6.154147 3.809546 -3.017965 89.603949 17.471659 44.355164 179.983339 73.260614 179.936535 -16.637104 41.248070 -6.693085 0.369651 -1.532576 -0.000000 0.000000 0.000000 0.000000 0.000000 0.000000 0.000000 
-7.817388 17.801721 -1.157711 -88.069620 88.296485 -75.143344 2.246549 3.499685 -5.642807 -1.155812 3.044659 -4.278611 -8.098428 3.208051 -0.600945 9.028723 -6.478327 -8.774004 -3.170141 -0.242683 -0.284121 0.000000 0.000000 0.000000 6.408210 23.976168 -1.183148 -57.098375 30.796757 9.769715 179.900309 -63.157403 179.991102 44.975009 -32.833440 -14.420793 -0.802508 0.779550 0.000000 0.000000 0.000000 0.000000 0.000000 0.000000 0.000000 6.327067 3.743011 -2.990407 89.710361 17.184775 44.354144 179.971465 73.685970 179.938299 -16.341716 40.908616 -6.513860 0.364706 -1.518072 -0.000000 0.000000 0.000000 0.000000 0.000000 0.000000 0.000000 
-7.603304 17.756683 -1.175072 -107.769193 88.347631 -95.255632 2.169672 3.442766 -5.314272 -1.171847 3.009284 -4.226727 -8.085304 3.173944 -0.654660 9.023542 -6.569972 -8.763722 -3.198896 -0.244721 -0.282662 0.000000 0.000000 0.000000 6.132231 23.809982 -1.199449 -57.310068 30.767094 9.179691 179.881625 -62.722635 179.988320 45.042947 -32.547684 -14.319597 -0.811104 0.783236 0.000000 0.000000 0.000000 0.000000 0.000000 0.000000 0.000000 6.505177 3.686051 -2.960112 89.771930 16.859088 44.257179 179.961998 74.112676 179.939770 -16.054805 40.600237 -6.345347 0.359132 -1.503779 -0.000000 0.000000 0.000000 0.000000 0.000000 0.000000 0.000000 
-7.391010 17.701057 -1.192069 -124.250956 88.149906 -112.140617 2.160370 3.396308 -4.975423 -1.164305 2.976203 -4.170851 -8.072307 3.140963 -0.703429 9.029643 -6.689609 -8.770205 -3.230968 -0.246739 -0.286520 0.000000 0.000000 0.000000 5.801310 23.655632 -1.224429 -57.518665 30.548343 8.711055 179.867913 -62.344245 179.986088 45.104386 -32.315282 -14.240369 -0.820308 0.788101 0.000000 0.000000 0.000000 0.000000 0.000000 0.000000 0.000000 6.715406 3.594059 -2.921579 89.769608 16.534383 44.101462 179.952997 74.557808 179.941225 -15.816742 40.318836 -6.202426 0.354370 -1.489075 -0.000000 0.000000 0.000000 0.000000 0.000000 0.000000 0.000000 
-7.180617 17.634887 -1.209223 -136.468048 87.765084 -124.739418 2.203387 3.337830 -4.638379 -1.138060 2.926585 -4.113403 -8.055662 3.091556 -0.749140 9.037547 -6.813622 -8.788094 -3.265942 -0.248782 -0.294082 0.000000 0.000000 0.000000 5.419436 23.507026 -1.255117 -57.720796 30.125786 8.385253 179.860355 -62.031047 179.984364 45.164861 -32.128791 -14.182002 -0.830459 0.794264 0.000000 0.000000 0.000000 0.000000 0.000000 0.000000 0.000000 6.937596 3.482988 -2.880117 89.702488 16.183944 43.853370 179.949190 75.018842 179.942261 -15.620475 40.065783 -6.081607 0.349523 -1.473646 -0.000000 0.000000 0.000000 0.000000 0.000000 0.000000 0.000000 
-6.972215 17.558692 -1.226567 -145.050200 87.277229 -133.676593 2.263036 3.263560 -4.310703 -1.104522 2.860807 -4.055642 -8.033981 3.027078 -0.792556 9.045505 -6.936284 -8.814782 -3.304737 -0.250968 -0.304629 0.000000 0.000000 0.000000 4.989921 23.362416 -1.291293 -57.916759 29.494857 8.208344 179.859670 -61.794268 179.983051 45.205442 -31.991268 -14.139400 -0.841151 0.801893 0.000000 0.000000 0.000000 0.000000 0.000000 0.000000 0.000000 7.176396 3.359535 -2.835546 89.563697 15.808183 43.508507 179.951482 75.508616 179.942816 -15.480829 39.839068 -5.987686 0.344849 -1.457156 -0.000000 0.000000 0.000000 0.000000 0.000000 0.000000 0.000000 
-6.765449 17.473167 -1.244218 -151.086498 86.762115 -140.028132 2.313418 3.182181 -4.009661 -1.071791 2.789034 -3.998685 -8.005887 2.958059 -0.825023 9.057528 -7.071900 -8.855527 -3.347175 -0.253243 -0.319562 0.000000 0.000000 0.000000 4.528189 23.237933 -1.335169 -58.122646 28.635297 8.189977 179.866147 -61.664019 179.981942 45.202518 -31.905176 -14.105878 -0.851514 0.811002 0.000000 0.000000 0.000000 0.000000 0.000000 0.000000 0.000000 7.446611 3.210045 -2.786469 89.341318 15.429451 43.088605 179.959562 76.051957 179.943048 -15.432001 39.634041 -5.932654 0.341411 -1.438953 -0.000000 0.000000 0.000000 0.000000 0.000000 0.000000 0.000000 
-6.560500 17.379032 -1.262307 -155.435398 86.253683 -144.643265 2.355447 3.099444 -3.744607 -1.040530 2.716136 -3.945326 -7.971127 2.889011 -0.851174 9.068408 -7.203675 -8.903314 -3.393622 -0.255730 -0.336824 0.000000 0.000000 0.000000 4.034460 23.128535 -1.384560 -58.343808 27.555292 8.324033 179.880463 -61.645536 179.980926 45.145732 -31.854410 -14.070539 -0.861372 0.821349 0.000000 0.000000 0.000000 0.000000 0.000000 0.000000 0.000000 7.741589 3.053001 -2.734904 89.031879 15.033586 42.577050 179.975563 76.659847 179.942810 -15.477318 39.448892 -5.916717 0.338931 -1.418600 -0.000000 0.000000 0.000000 0.000000 0.000000 0.000000 0.000000 
-6.357407 17.277242 -1.280886 -158.664503 85.772842 -148.078284 2.388682 3.019442 -3.528557 -1.010849 2.645224 -3.897936 -7.929745 2.822673 -0.870341 9.076674 -7.326517 -8.954865 -3.444010 -0.258479 -0.355392 0.000000 0.000000 0.000000 3.514598 23.033417 -1.438174 -58.590896 26.256121 8.602937 179.903110 -61.751068 179.979833 45.022578 -31.822654 -14.021792 -0.870370 0.832648 0.000000 0.000000 0.000000 0.000000 0.000000 0.000000 0.000000 8.061031 2.892275 -2.682051 88.632524 14.617738 41.971014 -179.999554 77.345679 179.942083 -15.624864 39.279233 -5.941478 0.337426 -1.395587 -0.000000 0.000000 0.000000 0.000000 0.000000 0.000000 0.000000 
-6.156165 17.169077 -1.299928 -161.155619 85.328568 -150.701124 2.412723 2.943314 -3.375904 -0.982643 2.576492 -3.860336 -7.883149 2.758730 -0.886521 9.080539 -7.429065 -9.002449 -3.498746 -0.261644 -0.372938 0.000000 0.000000 0.000000 2.969654 22.937847 -1.493906 -58.868578 24.758088 9.009546 179.934362 -61.981210 179.978544 44.824702 -31.789337 -13.947541 -0.878323 0.844482 0.000000 0.000000 0.000000 0.000000 0.000000 0.000000 0.000000 8.402538 2.738150 -2.628434 88.145849 14.166697 41.259972 -179.965011 78.116525 179.940836 -15.868236 39.121372 -6.003341 0.336491 -1.369624 -0.000000 0.000000 0.000000 0.000000 0.000000 0.000000 0.000000 
